PathFileType	4	(X/Y/Z)	D:\TRACE\spotREDO_2-26-24\spot_justBody_Motion_3_1-v60.trc
DataRate	CameraRate	NumFrames	NumMarkers	Units	OrigDataRate	OrigDataStartFrame	OrigNumFrames
100.00	100.00	      17	9	mm	100.00	5251	      7000
Frame#	Time	front left toe			Front right toe			aft left toe			aft right toe			Arm			FL body			FR body			AL Body			AR Body			
		X1	Y1	Z1	X2	Y2	Z2	X3	Y3	Z3	X4	Y4	Z4	X5	Y5	Z5	X6	Y6	Z6	X7	Y7	Z7	X8	Y8	Z8	X9	Y9	Z9	

5251	52.500	-156.31273	16.46226	-153.40442	350.09879	15.56743	-129.31062	-83.35655	29.15723	193.60242	335.33389	35.01831	305.25635	95.78895	797.34570	-366.12198	18.44782	538.38843	-325.86453	173.69447	544.20966	-342.53851	105.71667	581.95990	553.58807	246.73640	587.03906	539.73932	
5252	52.510	-156.31227	16.62600	-153.33372	350.11777	15.63101	-129.27832	-83.33314	29.17064	193.58696	335.41568	34.95069	305.25467	95.78194	797.19574	-366.48108	18.65675	538.17444	-325.77744	173.70613	544.15710	-342.78970	105.50967	582.14142	553.17664	246.57735	587.22437	539.60590	
5253	52.520	-156.32430	16.70798	-153.29558	350.07697	15.71459	-129.19923	-83.34995	29.22528	193.65173	335.45908	34.92311	305.35831	95.63752	797.25177	-367.07962	18.51991	538.25647	-326.10437	173.52715	544.24823	-343.07684	105.34908	582.32172	552.93237	246.25645	587.60608	539.35419	
5254	52.530	-156.36240	16.74097	-153.36462	350.05875	15.73109	-129.18787	-83.30638	29.18005	193.65208	335.44009	34.87115	305.33789	95.36300	797.27936	-367.56158	18.35813	538.23950	-326.40756	173.31807	544.19922	-343.51810	104.93987	582.38068	552.41724	246.10321	587.63873	538.81335	
5255	52.540	-156.35391	16.69151	-153.35085	350.01163	15.76961	-129.19203	-83.38315	29.07804	193.61409	335.39706	34.77182	305.35086	95.21535	797.25604	-367.81155	18.52458	538.07574	-327.05331	173.06679	544.15802	-343.98608	104.42718	582.27863	552.08429	245.29968	587.73615	538.36749	
5256	52.550	-156.34406	16.62044	-153.36501	349.94205	15.83076	-129.12094	-83.44849	28.96764	193.58397	335.26840	34.78342	305.38126	95.20145	797.18726	-368.33231	18.07034	538.21869	-327.94781	173.05882	544.18286	-344.34979	104.31194	581.69958	551.36963	244.86089	587.75909	538.04498	
5257	52.560	-156.43483	16.74147	-153.46770	349.95654	15.89194	-129.06995	-83.48219	28.93704	193.59904	335.31747	34.73125	305.42123	95.41609	797.05603	-368.71341	18.00738	538.15845	-328.40002	173.08823	544.24689	-344.73352	103.17770	582.36652	551.05414	244.49902	587.87628	537.86841	
5258	52.570	-156.48906	16.92008	-153.51137	350.07513	16.09668	-128.79990	-83.53452	28.94461	193.59245	335.16736	34.70253	305.42758	95.36471	797.11127	-369.19666	18.40896	538.00049	-328.33701	173.09479	544.23993	-345.05698	102.79374	582.59839	550.64221	243.98653	588.05286	537.50281	
5259	52.580	-156.54967	17.01414	-153.50058	349.88290	16.11972	-128.74767	-83.59473	28.99080	193.56146	335.11276	34.65247	305.43701	95.10761	797.28156	-369.73264	18.38196	537.93011	-329.11493	173.16669	544.26831	-345.56158	101.94296	582.62555	550.12408	242.95634	588.04663	536.82062	
5260	52.590	-156.61076	17.00137	-153.53503	349.66412	16.06649	-128.70430	-83.64864	28.94597	193.57973	334.90485	34.58142	305.45667	95.05083	797.30835	-370.45572	18.52502	537.85150	-329.64136	173.28430	544.28259	-345.99118	102.06375	581.45691	549.09656	242.77103	587.82751	536.56299	
5261	52.600	-156.71364	16.89525	-153.58464	349.48172	16.01913	-128.73695	-83.74161	28.86203	193.65405	334.82727	34.59217	305.48264	95.04269	797.18109	-370.81311	18.24499	537.89813	-330.50119	173.09830	544.30096	-346.63217	101.04941	581.51135	548.94238	241.92314	587.84064	536.32867	
5262	52.610	-156.77208	16.91192	-153.61018	349.49338	15.97951	-128.62604	-83.75282	28.71288	193.74434	334.78928	34.61576	305.50580	95.12622	797.08948	-371.21005	18.32162	537.82458	-330.67554	173.10728	544.22113	-346.96561	100.35477	581.32452	548.46539	240.96046	587.65015	535.81213	
5263	52.620	-156.85971	16.95199	-153.65298	349.22736	16.06162	-128.68414	-83.87568	28.72338	193.81580	334.60440	34.54616	305.49744	95.11800	797.09802	-371.47571	18.36289	537.81189	-331.35992	172.96654	544.15088	-347.31268	99.28218	582.07141	548.07123	240.08102	587.70251	535.43945	
5264	52.630	-156.91708	17.04365	-153.64395	349.08554	16.14943	-128.53960	-84.23972	28.85797	193.83907	334.57837	34.57696	305.53558	94.77695	797.19385	-372.27396	18.21112	537.91382	-331.97742	172.88461	544.15411	-347.80359	98.09766	581.98010	547.36877	239.40508	587.45349	534.95135	
5265	52.640	-156.95689	17.04901	-153.67058	348.99121	16.16257	-128.47453	-84.50935	28.84372	193.79115	334.26868	34.45635	305.51303	94.56754	797.20044	-372.82156	17.83584	538.01050	-332.80649	172.86688	544.29279	-348.36020	97.43554	581.81030	546.92914	238.68719	587.54395	534.75580	
5266	52.650	-157.00146	17.03312	-153.73622	348.85071	16.17336	-128.47226	-84.73848	28.70652	193.77849	333.93552	34.35972	305.49130	94.56709	797.14722	-373.30341	17.92369	537.83575	-333.24359	172.72745	544.36005	-349.00677	96.62213	581.50934	546.44312	237.54533	587.31970	533.92438	
5267	52.660	-157.10011	17.09407	-153.84331	348.71271	16.09273	-128.54103	-84.95110	28.60771	193.75626	333.62402	34.28932	305.52197	94.46718	797.10339	-373.60550	17.82285	537.60370	-333.89755	172.91684	544.59790	-349.55234	96.26238	580.66351	545.58392	236.96809	587.22113	533.59314	
